#!OML:ASF X:\für Bonn\!DataBase\2005_08_10_Bjorn_Final\c3d\bjorn.ASF
:FULLY-SPECIFIED
:DEGREES
65
root 0.657084 10.2763 3.31176 -179.442 -0.983445 -178.73
lowerback 25.1282 1.00572 5.80082
upperback 9.99459 0.32303 0.573575
thorax -2.75912 -0.690325 -2.72793
lowerneck -16.6323 -2.73518 -0.513983
upperneck -9.28233 -5.1321 0.586198
head -0.188989 -3.23257 0.034317
rclavicle 3.57812e-015 -7.95139e-016
rhumerus 78.8454 -1.76217 -71.6042
rradius 10.7468
rwrist 40.8853
rhand -14.7338 9.8923
rfingers 7.12502
rthumb 11.4215 -19.7766
lclavicle 3.57812e-015 -7.95139e-016
lhumerus 79.9345 -11.9726 66.6437
lradius 11.1167
lwrist -38.3285
lhand -23.2009 -6.73432
lfingers 7.12502
lthumb 3.24911 23.2207
rfemur -77.8966 -46.9358 10.9644
rtibia 137.471
rfoot -34.1035 43.0039
rtoes -26.428
lfemur -78.0707 32.4689 -13.2219
ltibia 140.027
lfoot -36.645 -17.3482
ltoes -39.4807
66
root 0.655345 10.0652 3.31116 -179.779 -0.99881 -178.762
lowerback 25.7117 1.02658 5.85098
upperback 10.1102 0.319821 0.604591
thorax -2.90766 -0.724927 -2.72125
lowerneck -16.7344 -2.69613 -0.437934
upperneck -9.32695 -5.11313 0.462573
head -0.192828 -3.23405 -0.0166984
rclavicle 1.98785e-016 5.56597e-015
rhumerus 78.7089 -1.74368 -71.1817
rradius 10.8674
rwrist 40.2736
rhand -14.8796 9.78986
rfingers 7.12502
rthumb 11.2809 -19.8868
lclavicle 1.98785e-016 5.56597e-015
lhumerus 80.0063 -11.9322 66.2542
lradius 11.1073
lwrist -37.9528
lhand -23.3432 -6.66431
lfingers 7.12502
lthumb 3.11169 23.2927
rfemur -78.3814 -51.2486 9.94904
rtibia 139.076
rfoot -35.301 45.3039
rtoes -26.3428
lfemur -79.0343 36.1165 -13.2357
ltibia 141.669
lfoot -37.4103 -18.4779
ltoes -39.4706
67
root 0.654011 9.85689 3.31004 -180.106 -1.01528 -178.775
lowerback 26.25 1.03411 5.95236
upperback 10.2322 0.308061 0.611107
thorax -3.02386 -0.760746 -2.76806
lowerneck -16.8414 -2.64772 -0.351051
upperneck -9.38603 -5.08466 0.375095
head -0.199725 -3.23167 -0.0577626
rclavicle -1.68967e-014 -1.86858e-014
rhumerus 78.5486 -1.72124 -70.8362
rradius 11.0226
rwrist 39.7305
rhand -15.0503 9.67009
rfingers 7.12502
rthumb 11.1162 -20.0155
lclavicle -1.68967e-014 -1.86858e-014
lhumerus 80.0477 -11.8809 66.0807
lradius 11.0705
lwrist -37.9595
lhand -23.4462 -6.6307
lfingers 7.12502
lthumb 3.01219 23.3278
rfemur -78.7791 -55.9395 8.77869
rtibia 140.66
rfoot -36.7234 47.7172
rtoes -26.1213
lfemur -80.0293 40.2379 -13.2875
ltibia 143.285
lfoot -38.4231 -19.4616
ltoes -39.6611
68
root 0.652739 9.65661 3.30781 -180.453 -1.03104 -178.806
lowerback 26.7396 1.06125 6.02461
upperback 10.3969 0.299817 0.63884
thorax -3.06779 -0.797839 -2.77626
lowerneck -17.0833 -2.60579 -0.273696
upperneck -9.35221 -5.06333 0.247141
head -0.156365 -3.23269 -0.115101
rclavicle -8.15017e-015 -1.23246e-014
rhumerus 78.4246 -1.71685 -70.5681
rradius 11.1575
rwrist 39.3049
rhand -15.284 9.57864
rfingers 7.12502
rthumb 10.8908 -20.1189
lclavicle -8.15017e-015 -1.23246e-014
lhumerus 80.1453 -11.8152 65.83
lradius 11.0374
lwrist -37.9119
lhand -23.4818 -6.57788
lfingers 7.12502
lthumb 2.97783 23.3811
rfemur -78.9371 -60.8255 7.33091
rtibia 142.17
rfoot -38.616 49.9933
rtoes -26.1318
lfemur -80.9347 44.6562 -13.343
ltibia 144.826
lfoot -39.6045 -20.3235
ltoes -39.9708
69
root 0.651723 9.46081 3.30492 -180.79 -1.017 -178.819
lowerback 27.169 1.09366 6.06679
upperback 10.5706 0.286269 0.691731
thorax -3.07329 -0.838391 -2.73823
lowerneck -17.3137 -2.53772 -0.238594
upperneck -9.32317 -4.99997 0.134173
head -0.114784 -3.21166 -0.15869
rclavicle 1.39149e-015 1.74931e-014
rhumerus 78.3081 -1.60368 -70.0847
rradius 11.2967
rwrist 38.7416
rhand -15.5093 9.43082
rfingers 7.12502
rthumb 10.6735 -20.2781
lclavicle 1.39149e-015 1.74931e-014
lhumerus 80.1472 -11.6562 65.9083
lradius 10.9829
lwrist -38.3259
lhand -23.4796 -6.53566
lfingers 7.12502
lthumb 2.97991 23.4233
rfemur -78.8752 -65.7762 5.62219
rtibia 143.643
rfoot -40.9644 52.0182
rtoes -26.2928
lfemur -81.8586 49.4226 -13.4044
ltibia 146.327
lfoot -40.9766 -21.01
ltoes -40.3654
70
root 0.650783 9.27115 3.30233 -181.127 -1.0338 -178.832
lowerback 27.5635 1.11763 6.17813
upperback 10.7526 0.27531 0.705092
thorax -3.0478 -0.873521 -2.78387
lowerneck -17.5376 -2.47844 -0.0979558
upperneck -9.29865 -4.96684 -0.0104792
head -0.0784914 -3.2088 -0.230657
rclavicle 1.31198e-014 -2.38542e-015
rhumerus 78.2019 -1.59072 -69.7598
rradius 11.3977
rwrist 38.3064
rhand -15.6808 9.34072
rfingers 7.12502
rthumb 10.508 -20.3766
lclavicle 1.31198e-014 -2.38542e-015
lhumerus 80.1778 -11.5611 66.0596
lradius 10.9102
lwrist -38.8946
lhand -23.3736 -6.60366
lfingers 7.12502
lthumb 3.0823 23.3538
rfemur -78.1306 -70.768 3.19003
rtibia 145.063
rfoot -43.7016 53.9096
rtoes -26.4956
lfemur -82.7499 54.4299 -13.4506
ltibia 147.782
lfoot -42.54 -21.5856
ltoes -40.809
71
root 0.649056 9.08874 3.30023 -181.455 -1.04086 -178.846
lowerback 27.9562 1.14615 6.25594
upperback 10.9179 0.267325 0.75561
thorax -3.04025 -0.908825 -2.77011
lowerneck -17.9469 -2.42174 -0.0255594
upperneck -9.10979 -4.91841 -0.180655
head 0.0417149 -3.19401 -0.306607
rclavicle -2.18663e-015 -7.15625e-015
rhumerus 78.1 -1.50356 -69.3122
rradius 11.461
rwrist 37.8005
rhand -15.8499 9.29308
rfingers 7.12502
rthumb 10.3449 -20.4325
lclavicle -2.18663e-015 -7.15625e-015
lhumerus 80.1409 -11.4193 66.5103
lradius 10.801
lwrist -39.7244
lhand -23.2149 -6.63415
lfingers 7.12502
lthumb 3.2356 23.321
rfemur -76.3977 -75.5935 -0.25586
rtibia 146.431
rfoot -46.7366 55.41
rtoes -26.8938
lfemur -83.6595 59.6446 -13.4912
ltibia 149.177
lfoot -44.177 -22.1361
ltoes -41.1957
72
root 0.648459 8.91186 3.298 -181.861 -1.03627 -178.875
lowerback 28.4005 1.19034 6.32576
upperback 11.1166 0.262779 0.788712
thorax -3.01655 -0.947636 -2.77181
lowerneck -18.5423 -2.35174 0.069975
upperneck -8.85483 -4.86267 -0.329288
head 0.214206 -3.17947 -0.385555
rclavicle 1.86858e-014 4.01545e-014
rhumerus 78.0279 -1.45115 -68.8853
rradius 11.5032
rwrist 37.2914
rhand -15.9265 9.26398
rfingers 7.12502
rthumb 10.2711 -20.4652
lclavicle 1.86858e-014 4.01545e-014
lhumerus 80.1479 -11.3013 66.8683
lradius 10.688
lwrist -40.528
lhand -23.0548 -6.64082
lfingers 7.12502
lthumb 3.39023 23.312
rfemur -71.0655 -80.3292 -7.32521
rtibia 147.737
rfoot -50.1474 56.7897
rtoes -27.1014
lfemur -84.2653 65.1885 -13.2816
ltibia 150.508
lfoot -46.0057 -22.575
ltoes -41.5675
73
root 0.647298 8.73791 3.29619 -182.337 -1.03094 -178.866
lowerback 28.9188 1.22175 6.42316
upperback 11.3174 0.244988 0.848989
thorax -3.02219 -0.998364 -2.75476
lowerneck -19.279 -2.26925 0.15807
upperneck -8.46585 -4.78199 -0.506033
head 0.455294 -3.15031 -0.477541
rclavicle -4.37326e-015 -2.94201e-014
rhumerus 77.9871 -1.3171 -68.2045
rradius 11.4605
rwrist 36.5191
rhand -15.9722 9.27015
rfingers 7.12502
rthumb 10.2269 -20.4612
lclavicle -4.37326e-015 -2.94201e-014
lhumerus 80.1245 -11.1689 67.1293
lradius 10.5764
lwrist -41.1075
lhand -22.8269 -6.71918
lfingers 7.12502
lthumb 3.61025 23.23
rfemur -54.0458 -84.5792 -26.0889
rtibia 149.003
rfoot -53.8106 57.9175
rtoes -27.4009
lfemur -84.3242 71.1854 -12.4125
ltibia 151.794
lfoot -48.0372 -23.1971
ltoes -41.6422
74
root 0.646221 8.5709 3.29397 -182.863 -1.03645 -178.893
lowerback 29.4692 1.25967 6.54387
upperback 11.5434 0.230098 0.870282
thorax -3.00915 -1.04935 -2.79475
lowerneck -20.069 -2.19514 0.275856
upperneck -8.0585 -4.71861 -0.656094
head 0.714121 -3.13071 -0.569583
rclavicle 0 1.39149e-014
rhumerus 77.998 -1.29609 -67.864
rradius 11.3256
rwrist 36.1241
rhand -15.9671 9.30336
rfingers 7.12502
rthumb 10.2319 -20.4278
lclavicle 0 1.39149e-014
lhumerus 80.2131 -11.1556 67.0574
lradius 10.3883
lwrist -41.3334
lhand -22.7079 -6.74577
lfingers 7.12502
lthumb 3.7252 23.2014
rfemur 4.41054 -86.453 -86.3727
rtibia 150.214
rfoot -57.7544 58.8287
rtoes -27.6107
lfemur -83.2261 76.924 -10.3676
ltibia 153.021
lfoot -50.0221 -23.7742
ltoes -41.5682
75
root 0.644656 8.41306 3.28996 -183.34 -1.04201 -178.885
lowerback 29.9506 1.29124 6.65673
upperback 11.7547 0.209811 0.935568
thorax -2.97999 -1.10179 -2.77993
lowerneck -20.7542 -2.10596 0.345582
upperneck -7.72675 -4.62924 -0.817341
head 0.934074 -3.099 -0.651813
rclavicle 2.98177e-014 1.07344e-014
rhumerus 77.9622 -1.19534 -67.4709
rradius 11.2294
rwrist 35.6882
rhand -15.907 9.33271
rfingers 7.12502
rthumb 10.2899 -20.3956
lclavicle 2.98177e-014 1.07344e-014
lhumerus 80.3119 -11.1348 66.9133
lradius 10.0542
lwrist -41.322
lhand -22.7144 -6.82879
lfingers 7.12502
lthumb 3.71889 23.1185
rfemur 48.0654 -83.9258 -131.822
rtibia 151.357
rfoot -61.5483 59.4597
rtoes -27.9042
lfemur -78.9247 82.5765 -4.99184
ltibia 154.17
lfoot -52.022 -24.3818
ltoes -41.3461
76
root 0.64349 8.26608 3.28474 -183.768 -1.04771 -178.894
lowerback 30.3676 1.32888 6.75093
upperback 11.9692 0.190282 0.996804
thorax -2.91649 -1.15189 -2.7594
lowerneck -21.3027 -2.01828 0.399662
upperneck -7.48196 -4.5383 -0.937591
head 1.10515 -3.06524 -0.712996
rclavicle -1.43125e-014 -2.10712e-014
rhumerus 77.868 -1.11058 -67.2411
rradius 11.1898
rwrist 35.4489
rhand -15.82 9.37456
rfingers 7.12502
rthumb 10.3738 -20.3495
lclavicle -1.43125e-014 -2.10712e-014
lhumerus 80.3214 -11.0421 67.1672
lradius 9.69702
lwrist -41.6083
lhand -22.7926 -7.01774
lfingers 7.12502
lthumb 3.64339 22.9309
rfemur 60.6889 -80.2758 -146.253
rtibia 152.412
rfoot -65.2915 59.978
rtoes -27.9901
lfemur -55.471 87.3538 19.5166
ltibia 155.228
lfoot -53.9085 -24.7009
ltoes -41.3016
77
root 0.641585 8.1338 3.27919 -184.076 -1.05441 -178.89
lowerback 30.679 1.35054 6.8883
upperback 12.1567 0.173364 1.03178
thorax -2.83279 -1.19053 -2.79398
lowerneck -21.6382 -1.92253 0.482846
upperneck -7.36892 -4.44359 -1.05086
head 1.1966 -3.02983 -0.768327
rclavicle -2.26615e-014 -1.70955e-014
rhumerus 77.7688 -1.07331 -67.2233
rradius 11.1388
rwrist 35.351
rhand -15.6584 9.41825
rfingers 7.12502
rthumb 10.5297 -20.298
lclavicle -2.26615e-014 -1.70955e-014
lhumerus 80.3163 -10.9856 67.3911
lradius 9.35543
lwrist -41.7863
lhand -22.885 -7.22132
lfingers 7.12502
lthumb 3.55414 22.7288
rfemur 65.0606 -77.0519 -152.355
rtibia 153.382
rfoot -68.4206 60.3493
rtoes -28.1282
lfemur -125.575 92.8137 -49.5151
ltibia 156.189
lfoot -55.5625 -24.8849
ltoes -41.2547
